<?xml version="1.0" encoding="UTF-8"?>
<svg version="1.1" xmlns="http://www.w3.org/2000/svg" width="180" height="180">
<path d="M0 0 C59.4 0 118.8 0 180 0 C180 59.4 180 118.8 180 180 C120.6 180 61.2 180 0 180 C0 120.6 0 61.2 0 0 Z " fill="#FDFDFD" transform="translate(0,0)"/>
<path d="M0 0 C0.12347317 6.21127026 0.21427988 12.42182856 0.2746582 18.6340332 C0.29982363 20.74776652 0.33395926 22.86141265 0.37719727 24.97485352 C0.43775941 28.01079798 0.46618909 31.04559362 0.48828125 34.08203125 C0.51408768 35.02899368 0.5398941 35.97595612 0.56648254 36.95161438 C0.56753425 39.40418179 0.54190481 41.60764318 0 44 C-2.49926758 45.93237305 -2.49926758 45.93237305 -5 47 C-5.66666667 50 -5.66666667 50 -5 53 C-4.50306641 53.44835205 -4.00613281 53.8967041 -3.49414062 54.35864258 C-1.40986063 56.64828546 -1.61686216 58.20119657 -1.59375 61.26171875 C-1.57183594 62.29876953 -1.54992187 63.33582031 -1.52734375 64.40429688 C-1.51832031 65.48775391 -1.50929688 66.57121094 -1.5 67.6875 C-1.40902031 78.41660537 -0.51455686 86.10095987 7.03125 94.23828125 C13.56204102 100.08230258 21.22776381 101.49612347 29.76171875 101.40234375 C37.05704221 100.49592841 43.02376512 96.71462988 47.5625 91 C51.09077767 85.97456 52.25594767 80.89867822 52.17602539 74.81445312 C52.16225609 73.01228333 52.16225609 73.01228333 52.14820862 71.17370605 C52.13152634 69.88919556 52.11484406 68.60468506 52.09765625 67.28125 C52.09138479 65.24720901 52.09166279 63.21322588 52.09185696 61.17917633 C52.09171375 56.18064679 52.07644025 51.18310448 52.00366211 46.18505859 C51.95420568 42.6956057 51.94874006 39.20843075 51.97179985 35.71873474 C51.97264101 33.75434529 51.92633356 31.79011721 51.87916565 29.82629395 C51.97254733 21.11942806 51.97254733 21.11942806 55.00216675 17.81860352 C60.5546471 14 60.5546471 14 64 14 C64.06975897 22.58024734 64.12294189 31.16037458 64.15543652 39.74083614 C64.17103868 43.72584547 64.19217616 47.71065961 64.22631836 51.69555664 C64.25910783 55.54702718 64.27689392 59.39831092 64.28463173 63.24991035 C64.29014033 64.71340433 64.30089662 66.17688902 64.31719017 67.64030266 C64.46316612 81.30467434 62.23056158 91.62754721 52.625 101.75 C43.51567701 110.42460475 33.68015597 111.56904561 21.6484375 111.30859375 C12.03897399 110.84634211 4.91224707 106.51499149 -2 100 C-6.54597389 94.95774075 -11.06772475 89.16507208 -10.953125 82.1171875 C-10.71624763 79.39309777 -10.40579055 76.70364068 -10 74 C-11.485 73.01 -11.485 73.01 -13 72 C-13.30441001 69.2206792 -13.42000003 66.66808889 -13.3984375 63.88671875 C-13.40130768 63.08015335 -13.40417786 62.27358795 -13.40713501 61.44258118 C-13.40917859 59.73360494 -13.40362823 58.02460546 -13.39111328 56.31567383 C-13.37512543 53.70795797 -13.39091876 51.10180675 -13.41015625 48.49414062 C-13.40817264 46.83332992 -13.40432654 45.17252019 -13.3984375 43.51171875 C-13.40754654 42.3458448 -13.40754654 42.3458448 -13.4168396 41.15641785 C-13.3570515 36.51615486 -12.57899615 33.8212468 -10 30 C-10.33 29.34 -10.66 28.68 -11 28 C-12.65 28 -14.3 28 -16 28 C-16.04254356 29.99954746 -16.04080783 32.00041636 -16 34 C-15.67 34.33 -15.34 34.66 -15 35 C-14.91138008 37.8116338 -14.88477645 40.59858255 -14.90234375 43.41015625 C-14.9037587 44.25219101 -14.90517365 45.09422577 -14.90663147 45.96177673 C-14.91224737 48.66205335 -14.92480252 51.36224828 -14.9375 54.0625 C-14.94251295 55.88867068 -14.94707621 57.71484266 -14.95117188 59.54101562 C-14.96222196 64.02737542 -14.97949721 68.51367384 -15 73 C-15.99 73.495 -15.99 73.495 -17 74 C-16.72965366 76.43717258 -16.72965366 76.43717258 -16 79 C-15.01 79.66 -14.02 80.32 -13 81 C-12.296875 83.03125 -12.296875 83.03125 -11.75 85.5 C-9.07169863 95.15304454 -2.54444543 103.17420577 6.078125 108.21484375 C12.80026281 111.71284509 18.36823396 112.18208386 25.875 112.1875 C26.76058594 112.19974609 27.64617187 112.21199219 28.55859375 112.22460938 C33.45625942 112.23555796 37.40913065 111.91109922 42 110 C42.928125 109.62875 43.85625 109.2575 44.8125 108.875 C53.67685506 103.66067349 60.99791399 96.00695338 64 86 C65.13626963 78.85502711 65.21803761 71.75558047 65.31640625 64.53125 C65.3475779 62.61717346 65.3475779 62.61717346 65.37937927 60.66442871 C65.43343672 57.29767965 65.4837599 53.93091805 65.53222656 50.56408691 C65.58276658 47.11819529 65.63828171 43.67238405 65.69335938 40.2265625 C65.80012469 33.4844375 65.90150132 26.74225064 66 20 C69.96 20.33 73.92 20.66 78 21 C78.09093878 28.98967114 78.16407918 36.97892928 78.20724869 44.96898174 C78.22798433 48.68044696 78.25603909 52.39153498 78.30175781 56.1027832 C78.3457245 59.69493544 78.36924205 63.28672854 78.37950897 66.87912941 C78.39032566 68.89347318 78.4214672 70.90767563 78.45318604 72.92179871 C78.45656539 87.01895753 74.7774972 99.44804863 65.15625 110.02734375 C55.58232561 118.99308852 43.60734655 123.93630488 30.46484375 124.0234375 C24.80630994 123.6726214 19.28505518 123.11402207 14 121 C13.34 120.01 12.68 119.02 12 118 C10.329375 118.185625 10.329375 118.185625 8.625 118.375 C1.74563563 118.61265077 -3.23834221 113.40965352 -8 109 C-18.35522066 97.55210183 -20.63360627 86.21208007 -20.3125 71.1875 C-20.3009751 69.79493532 -20.29119995 68.40235503 -20.28320312 67.00976562 C-20.2256298 61.24457608 -20.07540199 55.68333988 -19 50 C-20.65 50 -22.3 50 -24 50 C-23.75902588 51.05272095 -23.75902588 51.05272095 -23.51318359 52.12670898 C-22.97791545 55.12365034 -22.84101837 57.92990096 -22.7890625 60.97265625 C-22.76070312 62.12056641 -22.73234375 63.26847656 -22.703125 64.45117188 C-22.65163634 66.83123501 -22.60719648 69.21146262 -22.5703125 71.59179688 C-22.17061017 86.53899867 -18.63206469 99.25386432 -8.1875 110.375 C-3.16267857 115.02905791 2.5255275 120.1198094 9.625 119.875 C10.40875 119.58625 11.1925 119.2975 12 119 C12.33 120.32 12.66 121.64 13 123 C27.00017912 126.86211838 41.72757956 125.9595491 54.75 119.3125 C66.16257411 112.55133892 73.46013446 103.89630027 77.45703125 91.203125 C79.04197205 84.77214217 79.20833917 78.50299578 79.31640625 71.9140625 C79.3475779 70.32868179 79.3475779 70.32868179 79.37937927 68.71127319 C79.44453991 65.34924555 79.50360361 61.98714263 79.5625 58.625 C79.60571708 56.3398361 79.64933238 54.05467969 79.69335938 51.76953125 C79.80018687 46.17976381 79.901548 40.58992097 80 35 C84.95 35.33 89.9 35.66 95 36 C95.1000212 42.54292511 95.17200547 49.08539028 95.21972656 55.62890625 C95.23965232 57.84773527 95.26680297 60.06651311 95.30175781 62.28515625 C95.63454231 83.97487496 93.89899812 102.30721317 78.28515625 118.78125 C65.92330387 130.78386906 51.5656443 135.54588587 34.5625 135.375 C33.41201172 135.38660156 32.26152344 135.39820313 31.07617188 135.41015625 C15.02980981 135.35560771 -1.40820509 129.44012656 -13 118 C-26.1119529 103.13834663 -29.3318647 88.05659941 -29.1953125 68.80859375 C-29.19157579 67.25204145 -29.18873193 65.69548678 -29.18673706 64.13893127 C-29.17915235 60.07011255 -29.1595491 56.00143982 -29.1373291 51.93267822 C-29.11675858 47.76959202 -29.10771153 43.6064819 -29.09765625 39.44335938 C-29.07629759 31.29550641 -29.04222511 23.14777144 -29 15 C-26.44218125 13.51219708 -23.87929734 12.03466662 -21.3125 10.5625 C-20.59126953 10.14162109 -19.87003906 9.72074219 -19.12695312 9.28710938 C-15.44218648 7.18393206 -12.29655145 5.46609532 -8 5 C-8 4.34 -8 3.68 -8 3 C-1.125 0 -1.125 0 0 0 Z " fill="#104CA4" transform="translate(57,25)"/>
<path d="M0 0 C3.96 0.33 7.92 0.66 12 1 C12.09093878 8.98967114 12.16407918 16.97892928 12.20724869 24.96898174 C12.22798433 28.68044696 12.25603909 32.39153498 12.30175781 36.1027832 C12.3457245 39.69493544 12.36924205 43.28672854 12.37950897 46.87912941 C12.39032566 48.89347318 12.4214672 50.90767563 12.45318604 52.92179871 C12.45656539 67.01895753 8.7774972 79.44804863 -0.84375 90.02734375 C-11.05862372 99.5933218 -24.01930795 104.38071476 -38 104 C-38 100.7 -38 97.4 -38 94 C-40.64 94 -43.28 94 -46 94 C-46 93.67 -46 93.34 -46 93 C-44.91460937 92.95101562 -43.82921875 92.90203125 -42.7109375 92.8515625 C-41.26560216 92.77648014 -39.82029081 92.70093472 -38.375 92.625 C-37.66214844 92.5940625 -36.94929688 92.563125 -36.21484375 92.53125 C-24.98493277 91.91308976 -16.725769 86.98234435 -9 79 C-0.89825863 68.35423356 -0.85951665 57.45127341 -0.68359375 44.53125 C-0.66281265 43.25519897 -0.64203156 41.97914795 -0.62062073 40.66442871 C-0.56656328 37.29767965 -0.5162401 33.93091805 -0.46777344 30.56408691 C-0.41723342 27.11819529 -0.36171829 23.67238405 -0.30664062 20.2265625 C-0.19987531 13.4844375 -0.09849868 6.74225064 0 0 Z " fill="#10B7EA" transform="translate(123,45)"/>
<path d="M0 0 C0.721875 0.00257812 1.44375 0.00515625 2.1875 0.0078125 C2.909375 0.00523438 3.63125 0.00265625 4.375 0 C6.1875 0.1328125 6.1875 0.1328125 7.1875 1.1328125 C7.26063567 3.66330652 7.27997527 6.16586087 7.25 8.6953125 C7.24548828 9.40623047 7.24097656 10.11714844 7.23632812 10.84960938 C7.22450864 12.61071263 7.20657263 14.37177286 7.1875 16.1328125 C8.17492187 16.10960937 9.16234375 16.08640625 10.1796875 16.0625 C11.46101563 16.04445313 12.74234375 16.02640625 14.0625 16.0078125 C15.97675781 15.97300781 15.97675781 15.97300781 17.9296875 15.9375 C21.1875 16.1328125 21.1875 16.1328125 23.1875 18.1328125 C23.4375 21.6328125 23.4375 21.6328125 23.1875 25.1328125 C21.1875 27.1328125 21.1875 27.1328125 18.1484375 27.328125 C16.96507812 27.30492188 15.78171875 27.28171875 14.5625 27.2578125 C13.37398437 27.23976563 12.18546875 27.22171875 10.9609375 27.203125 C10.04570312 27.17992188 9.13046875 27.15671875 8.1875 27.1328125 C8.21070313 28.04804687 8.23390625 28.96328125 8.2578125 29.90625 C8.28488281 31.68902344 8.28488281 31.68902344 8.3125 33.5078125 C8.33570313 34.69117188 8.35890625 35.87453125 8.3828125 37.09375 C8.1875 40.1328125 8.1875 40.1328125 6.1875 42.1328125 C3.47295044 42.46033484 0.93519241 42.263655 -1.8125 42.1328125 C-2.8125 41.1328125 -2.8125 41.1328125 -2.91015625 37.97265625 C-2.89855469 36.68488281 -2.88695312 35.39710937 -2.875 34.0703125 C-2.86597656 32.77996094 -2.85695312 31.48960938 -2.84765625 30.16015625 C-2.83605469 29.16113281 -2.82445312 28.16210938 -2.8125 27.1328125 C-3.79992187 27.15601562 -4.78734375 27.17921875 -5.8046875 27.203125 C-7.08601562 27.22117187 -8.36734375 27.23921875 -9.6875 27.2578125 C-10.96367187 27.28101562 -12.23984375 27.30421875 -13.5546875 27.328125 C-16.8125 27.1328125 -16.8125 27.1328125 -18.8125 25.1328125 C-19.0625 21.6328125 -19.0625 21.6328125 -18.8125 18.1328125 C-16.8125 16.1328125 -16.8125 16.1328125 -13.5546875 15.9375 C-12.27851563 15.96070313 -11.00234375 15.98390625 -9.6875 16.0078125 C-7.76550781 16.03488281 -7.76550781 16.03488281 -5.8046875 16.0625 C-4.32355469 16.09730469 -4.32355469 16.09730469 -2.8125 16.1328125 C-2.82410156 15.06160156 -2.83570313 13.99039062 -2.84765625 12.88671875 C-2.85703299 11.48958507 -2.86613331 10.09244951 -2.875 8.6953125 C-2.88756836 7.63473633 -2.88756836 7.63473633 -2.90039062 6.55273438 C-2.90903588 4.74587691 -2.86470011 2.93893647 -2.8125 1.1328125 C-1.8125 0.1328125 -1.8125 0.1328125 0 0 Z " fill="#0CB9E8" transform="translate(143.8125,13.8671875)"/>
<path d="M0 0 C0.66 0 1.32 0 2 0 C3.21403735 6.66237058 3.16170852 13.26225519 3.16796875 20.01953125 C3.17296135 21.90015511 3.17296135 21.90015511 3.17805481 23.81877136 C3.18310654 26.46556156 3.18589763 29.11224897 3.18530273 31.7590332 C3.18522146 34.4560415 3.19216843 37.15288001 3.20581055 39.84985352 C3.22420915 43.76063165 3.22904269 47.67121404 3.23046875 51.58203125 C3.23765427 52.77713821 3.24483978 53.97224518 3.25224304 55.2035675 C3.21224874 69.99497875 0.47706134 79.88295882 -9.68359375 90.796875 C-12.62431751 93.59378596 -15.3527497 95.24931985 -19 97 C-19.99 97.66 -20.98 98.32 -22 99 C-31.61858052 101.79714818 -45.9995484 101.7621104 -54.96875 97.26171875 C-64.91844013 91.08143046 -71.57004019 83.9778287 -76 73 C-76.16757813 72.11183594 -76.33515625 71.22367187 -76.5078125 70.30859375 C-76.79990176 67.81213367 -76.79990176 67.81213367 -79.0625 66.1875 C-79.701875 65.795625 -80.34125 65.40375 -81 65 C-80.67 63.35 -80.34 61.7 -80 60 C-79.34 60 -78.68 60 -78 60 C-78.11793712 54.60636763 -78.24216181 49.21293153 -78.37231445 43.81958008 C-78.4157282 41.98335753 -78.45739839 40.14709292 -78.49731445 38.31079102 C-78.55486169 35.67711689 -78.61859998 33.04365579 -78.68359375 30.41015625 C-78.70030624 29.58411392 -78.71701874 28.75807159 -78.73423767 27.90699768 C-78.47807433 24.14523247 -78.47807433 24.14523247 -80 21 C-80.125 18 -80.125 18 -80 15 C-79 14 -79 14 -76.5625 13.75 C-75.2940625 13.87375 -75.2940625 13.87375 -74 14 C-73.01 15.485 -73.01 15.485 -72 17 C-72.4844458 17.64799561 -72.9688916 18.29599121 -73.46801758 18.96362305 C-75.42710909 22.84652681 -75.47702287 26.32767055 -75.51171875 30.58203125 C-75.52966995 31.39621017 -75.54762115 32.2103891 -75.56611633 33.04924011 C-75.6200821 35.63694152 -75.65407025 38.22445993 -75.6875 40.8125 C-75.72068528 42.57229101 -75.75517606 44.33205792 -75.79101562 46.09179688 C-75.87580042 50.39439893 -75.94267665 54.69694801 -76 59 C-74.68 59.66 -73.36 60.32 -72 61 C-72.13019531 61.67804688 -72.26039062 62.35609375 -72.39453125 63.0546875 C-73.69632503 71.83875394 -71.51371731 76.76061088 -66.6796875 83.96875 C-61.61922419 90.56181076 -53.97134301 94.9143081 -46 97 C-42.89134877 97.32236534 -39.81136889 97.38113787 -36.6875 97.375 C-35.84098877 97.37338867 -34.99447754 97.37177734 -34.12231445 97.37011719 C-27.97086482 97.24895317 -23.21447915 96.43654461 -18 93 C-16.96875 92.4225 -15.9375 91.845 -14.875 91.25 C-7.20235815 85.24532377 -1.60039053 77.71738598 0 68 C0.08571455 65.73136512 0.11773736 63.4604352 0.11352539 61.19018555 C0.11367142 60.52621262 0.11381744 59.86223969 0.1139679 59.17814636 C0.11327483 56.99763651 0.10551099 54.81721356 0.09765625 52.63671875 C0.09578992 51.1192886 0.09436703 49.60185785 0.09336853 48.08442688 C0.08956032 44.10108765 0.07974459 40.1177852 0.06866455 36.13446045 C0.05841389 32.06555682 0.05386309 27.99664721 0.04882812 23.92773438 C0.03812074 15.95180609 0.02106478 7.97590763 0 0 Z " fill="#C6DFF1" transform="translate(120,38)"/>
<path d="M0 0 C2.49361571 1.20381448 4.68143083 2.45428722 7 4 C7.703125 6.03125 7.703125 6.03125 8.25 8.5 C11.11299583 18.81871413 18.30020711 26.83737456 27.4375 32.1875 C33.77726922 35.19983567 41.1291186 35.89932482 48 37 C48 39.97 48 42.94 48 46 C45.89504036 45.93994409 43.79088565 45.85114641 41.6875 45.75 C40.51574219 45.70359375 39.34398437 45.6571875 38.13671875 45.609375 C35 45 35 45 33.296875 42.93359375 C32.86890625 42.29550781 32.4409375 41.65742188 32 41 C30.865625 41.103125 29.73125 41.20625 28.5625 41.3125 C22.8250857 41.58721965 19.18556695 38.14403697 14.90625 34.69140625 C7.01418762 27.38276246 0.64809894 18.05803018 -0.234375 7.0859375 C-0.24777953 4.70663267 -0.18517682 2.37129201 0 0 Z " fill="#0E3997" transform="translate(37,102)"/>
<path d="M0 0 C0.33 0 0.66 0 1 0 C1.20149907 7.87617605 1.38504902 15.75255696 1.54658794 23.62964249 C1.62216712 27.28851739 1.70359422 30.94705473 1.79907227 34.60546875 C1.8912341 38.14550077 1.96713844 41.68556317 2.03244972 45.22618866 C2.07315257 47.21356736 2.13007075 49.20059313 2.18742371 51.18756104 C2.44132305 66.74178447 -1.43779036 80.17422782 -12.29296875 91.60546875 C-23.88906421 101.86290961 -37.42768928 105.56375716 -52.7421875 105.23828125 C-57.01130082 104.92603195 -60.87734655 104.13728371 -65 103 C-65.33 101.35 -65.66 99.7 -66 98 C-68.86724686 98.57344937 -69.8614515 98.8614515 -72 101 C-72 100.34 -72 99.68 -72 99 C-72.66 98.79375 -73.32 98.5875 -74 98.375 C-85.98684068 92.88103136 -94.34182273 82.10532693 -99 70 C-101.30953985 62.53796613 -101.39024609 55.00562726 -101.5625 47.25 C-101.62258765 44.85927876 -101.68625005 42.46864403 -101.75390625 40.078125 C-101.77783447 39.03043945 -101.8017627 37.98275391 -101.82641602 36.90332031 C-101.93120697 33.99637949 -101.93120697 33.99637949 -102.57788086 31.18261719 C-102.71718018 30.46235352 -102.85647949 29.74208984 -103 29 C-102 28 -102 28 -99.4375 27.9375 C-98.2309375 27.9684375 -98.2309375 27.9684375 -97 28 C-95.875 32.75 -95.875 32.75 -97 35 C-97.28414899 39.22302954 -97.31405347 43.45010178 -97.35009766 47.68139648 C-97.36647109 49.0826093 -97.39350729 50.48374534 -97.43212891 51.88452148 C-97.79679296 65.20427225 -95.18985454 76.44855748 -86.23828125 86.765625 C-79.89321649 93.18044448 -79.89321649 93.18044448 -71.69140625 96.28515625 C-69.79388646 96.19811406 -67.89688967 96.0998363 -66 96 C-65.32904297 96.94359375 -65.32904297 96.94359375 -64.64453125 97.90625 C-61.81677562 101.50643293 -57.94581755 101.21126584 -53.609375 101.74609375 C-39.08310027 102.76796373 -26.46899245 99.06729145 -15 90 C-5.81469938 80.9711781 -0.9743179 69.45494713 -0.79467773 56.64916992 C-0.77473251 55.3882402 -0.75478729 54.12731049 -0.73423767 52.82817078 C-0.71725732 51.46227133 -0.70037837 50.09637062 -0.68359375 48.73046875 C-0.66300526 47.32513341 -0.6420083 45.919804 -0.62062073 44.51448059 C-0.56559565 40.82712627 -0.51610067 37.13971788 -0.46777344 33.45227051 C-0.41741496 29.68492864 -0.361804 25.91766466 -0.30664062 22.15039062 C-0.19929859 14.76699317 -0.09780112 7.38353066 0 0 Z " fill="#E7EAF2" transform="translate(135,46)"/>
<path d="M0 0 C2.5 0.25 2.5 0.25 4.5 2.25 C4.17028521 5.54714793 3.8773161 6.8726839 1.5 9.25 C1.04956783 12.24847689 1.17600264 15.28409475 1.1875 18.3125 C1.17138672 19.13427734 1.15527344 19.95605469 1.13867188 20.80273438 C1.13197762 29.31112801 2.98600944 36.53209993 8.8984375 42.80859375 C12.49294361 46.04364925 15.46366291 47.16363858 20.25 47.5625 C23.58445762 47.58966344 23.58445762 47.58966344 25.5 45.25 C28.125 45.625 28.125 45.625 30.5 46.25 C31.125 48.625 31.125 48.625 31.5 51.25 C29.5 53.25 29.5 53.25 26.9375 53.4375 C24.5 53.25 24.5 53.25 23.5 52.25 C21.96322652 51.95265494 20.42022121 51.6872563 18.875 51.4375 C11.11031563 49.92000819 6.11165307 46.91127665 1.5 40.25 C-1.60027251 33.56668748 -1.96561178 27.68314032 -2.0625 20.375 C-2.0968343 18.31494216 -2.13938048 16.25499949 -2.19140625 14.1953125 C-2.20373291 13.29312988 -2.21605957 12.39094727 -2.22875977 11.46142578 C-2.29481749 9.04467396 -2.29481749 9.04467396 -4.5 7.25 C-4.75 4.75 -4.75 4.75 -4.5 2.25 C-2.5 0.25 -2.5 0.25 0 0 Z " fill="#1D45A4" transform="translate(58.5,70.75)"/>
<path d="M0 0 C0.66 0.33 1.32 0.66 2 1 C1.67447917 3.01822917 1.34895833 5.03645833 1.0234375 7.0546875 C1.01570313 7.69664063 1.00796875 8.33859375 1 9 C1.66 9.66 2.32 10.32 3 11 C3.25537109 13.1796875 3.25537109 13.1796875 3.2734375 15.875 C3.2940625 16.86113281 3.3146875 17.84726563 3.3359375 18.86328125 C3.36158902 20.92309802 3.3800476 22.98301941 3.390625 25.04296875 C3.56641592 32.59221229 4.51441779 40.10739963 9.73950195 45.94262695 C14.75888466 50.54631384 19.43915535 52.00182865 26.07421875 52.7265625 C30.43254246 53.34539142 33.0246653 54.87973495 36 58 C25.73298841 58.46905129 18.24169165 58.0186692 10.1875 51.25 C4.84591329 46.17875537 1.29608495 40.89915169 0.84228516 33.39038086 C0.82472168 32.42495361 0.8071582 31.45952637 0.7890625 30.46484375 C0.76070312 29.40845703 0.73234375 28.35207031 0.703125 27.26367188 C0.65095395 25.04248921 0.60670918 22.82110651 0.5703125 20.59960938 C0.539375 19.54451172 0.5084375 18.48941406 0.4765625 17.40234375 C0.45674316 16.43804443 0.43692383 15.47374512 0.41650391 14.48022461 C-0.06948972 11.58619809 -0.88103666 10.91496376 -3 9 C-3.375 6 -3.375 6 -3 3 C-1.5 1.125 -1.5 1.125 0 0 Z " fill="#E4EAF5" transform="translate(54,69)"/>
<path d="M0 0 C0.33 0 0.66 0 1 0 C1.20149907 7.87617605 1.38504902 15.75255696 1.54658794 23.62964249 C1.62216712 27.28851739 1.70359422 30.94705473 1.79907227 34.60546875 C1.8912341 38.14550077 1.96713844 41.68556317 2.03244972 45.22618866 C2.07315257 47.21356736 2.13007075 49.20059313 2.18742371 51.18756104 C2.44169671 66.76467568 -1.45850106 80.12050196 -12.26953125 91.6015625 C-19.18331429 97.67461369 -29.00818621 104.06733689 -38.43359375 103.9765625 C-40.2890625 103.65104167 -42.14453125 103.32552083 -44 103 C-44 102.67 -44 102.34 -44 102 C-43.11699219 101.85304688 -42.23398438 101.70609375 -41.32421875 101.5546875 C-27.58789545 98.98742622 -16.32771988 93.62989263 -8.3125 81.9375 C-1.87726842 71.05633647 -0.40231753 60.42510184 -0.390625 47.94921875 C-0.37559832 46.5553042 -0.35886201 45.16140715 -0.34051514 43.76753235 C-0.29733116 40.14599671 -0.2769533 36.52470089 -0.26177979 32.9029541 C-0.24202923 29.18841651 -0.20008134 25.47413145 -0.16015625 21.75976562 C-0.08538663 14.50657916 -0.03477584 7.25350041 0 0 Z " fill="#CDE8F5" transform="translate(135,46)"/>
<path d="M0 0 C1.2684375 0.12375 1.2684375 0.12375 2.5625 0.25 C3.2225 1.24 3.8825 2.23 4.5625 3.25 C3.8358313 4.22199341 3.8358313 4.22199341 3.09448242 5.21362305 C1.13539091 9.09652681 1.08547713 12.57767055 1.05078125 16.83203125 C1.03283005 17.64621017 1.01487885 18.4603891 0.99638367 19.29924011 C0.9424179 21.88694152 0.90842975 24.47445993 0.875 27.0625 C0.84181472 28.82229101 0.80732394 30.58205792 0.77148438 32.34179688 C0.68669958 36.64439893 0.61982335 40.94694801 0.5625 45.25 C1.8825 45.91 3.2025 46.57 4.5625 47.25 C4.0675 49.725 4.0675 49.725 3.5625 52.25 C2.9025 50.93 2.2425 49.61 1.5625 48.25 C0.5725 48.25 -0.4175 48.25 -1.4375 48.25 C-1.4375 49.24 -1.4375 50.23 -1.4375 51.25 C-0.4475 51.58 0.5425 51.91 1.5625 52.25 C1.2325 53.57 0.9025 54.89 0.5625 56.25 C-2 54.0625 -2 54.0625 -4.4375 51.25 C-4.25 48.4375 -4.25 48.4375 -3.4375 46.25 C-2.7775 46.25 -2.1175 46.25 -1.4375 46.25 C-1.55543712 40.85636763 -1.67966181 35.46293153 -1.80981445 30.06958008 C-1.8532282 28.23335753 -1.89489839 26.39709292 -1.93481445 24.56079102 C-1.99236169 21.92711689 -2.05609998 19.29365579 -2.12109375 16.66015625 C-2.13780624 15.83411392 -2.15451874 15.00807159 -2.17173767 14.15699768 C-1.91557433 10.39523247 -1.91557433 10.39523247 -3.4375 7.25 C-3.5625 4.25 -3.5625 4.25 -3.4375 1.25 C-2.4375 0.25 -2.4375 0.25 0 0 Z " fill="#CAE1F4" transform="translate(43.4375,51.75)"/>
<path d="M0 0 C0.66 0.33 1.32 0.66 2 1 C1.67447917 3.01822917 1.34895833 5.03645833 1.0234375 7.0546875 C1.01570313 7.69664063 1.00796875 8.33859375 1 9 C1.66 9.66 2.32 10.32 3 11 C3.28710938 13.21142578 3.28710938 13.21142578 3.34375 15.9453125 C3.37339844 16.94046875 3.40304688 17.935625 3.43359375 18.9609375 C3.45550781 20.00507812 3.47742187 21.04921875 3.5 22.125 C3.61961679 30.4617767 3.61961679 30.4617767 5.15625 38.6171875 C5.4346875 39.73351562 5.713125 40.84984375 6 42 C5.34 42.66 4.68 43.32 4 44 C0.43547814 36.15994793 0.54345791 28.90555375 0.47265625 20.40429688 C0.45074219 19.36724609 0.42882813 18.33019531 0.40625 17.26171875 C0.39916016 16.32287842 0.39207031 15.38403809 0.38476562 14.41674805 C-0.07049752 11.55719862 -0.91071755 10.89485933 -3 9 C-3.375 6 -3.375 6 -3 3 C-1.5 1.125 -1.5 1.125 0 0 Z " fill="#D6E5F6" transform="translate(54,69)"/>
<path d="M0 0 C1.2065625 0.0309375 1.2065625 0.0309375 2.4375 0.0625 C3.5625 4.8125 3.5625 4.8125 2.4375 7.0625 C2.31984819 8.85168175 2.25861807 10.64474075 2.2265625 12.4375 C2.19820312 13.50484375 2.16984375 14.5721875 2.140625 15.671875 C2.0885455 17.93212524 2.04427308 20.19256886 2.0078125 22.453125 C1.976875 23.52046875 1.9459375 24.5878125 1.9140625 25.6875 C1.89424316 26.66976562 1.87442383 27.65203125 1.85400391 28.6640625 C1.71655762 29.45554687 1.57911133 30.24703125 1.4375 31.0625 C0.4475 31.7225 -0.5425 32.3825 -1.5625 33.0625 C-1.58755615 32.27077393 -1.6126123 31.47904785 -1.63842773 30.66333008 C-1.75465729 27.06706637 -1.87726176 23.4710472 -2 19.875 C-2.03931641 18.62912109 -2.07863281 17.38324219 -2.11914062 16.09960938 C-2.16103516 14.89755859 -2.20292969 13.69550781 -2.24609375 12.45703125 C-2.28275146 11.35206299 -2.31940918 10.24709473 -2.35717773 9.10864258 C-2.49266479 6.07933062 -2.49266479 6.07933062 -3.14477539 3.2253418 C-3.35154907 2.15473511 -3.35154907 2.15473511 -3.5625 1.0625 C-2.5625 0.0625 -2.5625 0.0625 0 0 Z " fill="#9FB4E0" transform="translate(35.5625,73.9375)"/>
<path d="M0 0 C1.98 0.495 1.98 0.495 4 1 C4.01417969 1.60585937 4.02835938 2.21171875 4.04296875 2.8359375 C4.59075851 12.45927105 8.24338172 19.68827908 14.86328125 26.625 C16 28 16 28 16 30 C9.86749329 27.45265106 5.86481696 21.19704738 3 15.375 C1.85182081 11.49989522 2.12176249 8.91214889 3 5 C1.68 4.67 0.36 4.34 -1 4 C-0.67 2.68 -0.34 1.36 0 0 Z " fill="#E3E8F3" transform="translate(42,99)"/>
<path d="M0 0 C0.33 0 0.66 0 1 0 C1 12.21 1 24.42 1 37 C2.32 37.66 3.64 38.32 5 39 C4.505 41.475 4.505 41.475 4 44 C3.34 42.68 2.68 41.36 2 40 C1.01 40 0.02 40 -1 40 C-1 40.99 -1 41.98 -1 43 C-0.01 43.33 0.98 43.66 2 44 C1.67 45.32 1.34 46.64 1 48 C-1.5625 45.8125 -1.5625 45.8125 -4 43 C-3.9375 40.25 -3.9375 40.25 -3 38 C-2.01 37.505 -2.01 37.505 -1 37 C-0.67 24.79 -0.34 12.58 0 0 Z " fill="#EEF2F9" transform="translate(43,60)"/>
<path d="M0 0 C3.76604823 1.41226809 7.28587752 3.13179599 10.83984375 5 C16.14083698 7.45398602 21.07417518 8.35519419 26.875 8.625 C27.90753906 8.68300781 27.90753906 8.68300781 28.9609375 8.7421875 C30.64023246 8.83548166 32.32007767 8.91878238 34 9 C34 9.33 34 9.66 34 10 C20.44443059 10.50102721 10.26168321 10.29808236 -1 2 C-0.67 1.34 -0.34 0.68 0 0 Z " fill="#E9EDF6" transform="translate(58,128)"/>
<path d="M0 0 C2.5 0.25 2.5 0.25 4.5 2.25 C4.125 4.875 4.125 4.875 3.5 7.25 C1.83333333 7.25 0.16666667 7.25 -1.5 7.25 C-1.83 7.91 -2.16 8.57 -2.5 9.25 C-4.5 7.25 -4.5 7.25 -4.75 4.75 C-4.40058445 1.25584452 -3.49415548 0.34941555 0 0 Z " fill="#1047BB" transform="translate(58.5,70.75)"/>
<path d="M0 0 C1.04616643 3.1384993 1.04169366 5.05038303 0.87890625 8.32421875 C0.83056641 9.35224609 0.78222656 10.38027344 0.73242188 11.43945312 C0.67634766 12.51130859 0.62027344 13.58316406 0.5625 14.6875 C0.51029297 15.77095703 0.45808594 16.85441406 0.40429688 17.97070312 C0.27458784 20.64742591 0.13962067 23.32377888 0 26 C-0.66 26 -1.32 26 -2 26 C-2 17.75 -2 9.5 -2 1 C-1.34 0.67 -0.68 0.34 0 0 Z " fill="#0633A0" transform="translate(59,77)"/>
<path d="M0 0 C10.395 0.99 10.395 0.99 21 2 C19 4 19 4 15.91796875 4.23046875 C14.68691406 4.21628906 13.45585938 4.20210937 12.1875 4.1875 C10.35251953 4.17783203 10.35251953 4.17783203 8.48046875 4.16796875 C5.52337201 4.02525813 2.87153435 3.68369865 0 3 C0 2.01 0 1.02 0 0 Z " fill="#C7CFE1" transform="translate(74,147)"/>
<path d="M0 0 C0.33 0 0.66 0 1 0 C1.01981934 0.65484375 1.03963867 1.3096875 1.06005859 1.984375 C1.15610522 4.98994448 1.26545784 7.99489331 1.375 11 C1.42140625 12.54494141 1.42140625 12.54494141 1.46875 14.12109375 C1.64710878 18.78814838 1.89414795 23.11608993 3.1640625 27.625 C3.43992187 28.73875 3.71578125 29.8525 4 31 C3.34 31.66 2.68 32.32 2 33 C-1.41058003 25.84567274 -1.19308729 19.81199479 -0.6875 12 C-0.62626953 10.84371094 -0.56503906 9.68742187 -0.50195312 8.49609375 C-0.34975444 5.66285678 -0.1820672 2.83144794 0 0 Z " fill="#BDC9E6" transform="translate(56,80)"/>
<path d="M0 0 C0 0.99 0 1.98 0 3 C-6.75821107 6.70092511 -12.2870605 7.20218095 -19.875 6.5625 C-20.56335938 6.51029297 -21.25171875 6.45808594 -21.9609375 6.40429688 C-23.64112758 6.27594902 -25.32064749 6.13887775 -27 6 C-27 5.67 -27 5.34 -27 5 C-25.94941406 4.97421875 -24.89882812 4.9484375 -23.81640625 4.921875 C-16.49156013 4.65584999 -10.18536329 4.41136503 -3.6015625 0.83984375 C-2 0 -2 0 0 0 Z " fill="#BFD1EE" transform="translate(104,131)"/>
<path d="M0 0 C1.98 0.495 1.98 0.495 4 1 C4.06058594 1.68707031 4.12117188 2.37414062 4.18359375 3.08203125 C4.26738281 3.98308594 4.35117187 4.88414063 4.4375 5.8125 C4.51871094 6.70582031 4.59992187 7.59914063 4.68359375 8.51953125 C4.93489767 11.12743559 4.93489767 11.12743559 6 14 C5.01 14 4.02 14 3 14 C2.15545644 10.62182575 1.89155081 8.32534757 3 5 C1.68 4.67 0.36 4.34 -1 4 C-0.67 2.68 -0.34 1.36 0 0 Z " fill="#CFDCF0" transform="translate(42,99)"/>
<path d="M0 0 C2.625 0.375 2.625 0.375 5 1 C5.33 2.65 5.66 4.3 6 6 C0.06 5.01 0.06 5.01 -6 4 C-4.68 3.34 -3.36 2.68 -2 2 C-1.34 1.34 -0.68 0.68 0 0 Z " fill="#2954B6" transform="translate(84,116)"/>
<path d="M0 0 C3.07227127 1.04906824 4.39850081 2.49460089 6.5625 4.875 C7.5525 5.535 8.5425 6.195 9.5625 6.875 C7.2525 6.875 4.9425 6.875 2.5625 6.875 C2.2325 5.225 1.9025 3.575 1.5625 1.875 C-1.30474686 2.44844937 -2.2989515 2.7364515 -4.4375 4.875 C-4.7675 3.885 -5.0975 2.895 -5.4375 1.875 C-2.4375 -0.125 -2.4375 -0.125 0 0 Z " fill="#E6ECF1" transform="translate(67.4375,142.125)"/>
<path d="M0 0 C1.32 0 2.64 0 4 0 C4.33 1.98 4.66 3.96 5 6 C3.02 6 1.04 6 -1 6 C-1.33 5.01 -1.66 4.02 -2 3 C-1.34 2.01 -0.68 1.02 0 0 Z " fill="#76A4AF" transform="translate(65,144)"/>
<path d="M0 0 C4.95 0 9.9 0 15 0 C14.67 0.99 14.34 1.98 14 3 C12.33388095 3.042721 10.66617115 3.04063832 9 3 C8.67 2.67 8.34 2.34 8 2 C6.65252916 1.76924918 5.29622435 1.58846937 3.9375 1.4375 C2.638125 1.293125 1.33875 1.14875 0 1 C0 0.67 0 0.34 0 0 Z " fill="#274BA1" transform="translate(74,121)"/>
<path d="M0 0 C0.33 0 0.66 0 1 0 C2 5 3 10 4 15 C3.01 14.67 2.02 14.34 1 14 C-0.83462949 9.4695884 -1.51555572 4.69822274 0 0 Z " fill="#C1CCE5" transform="translate(36,105)"/>
<path d="M0 0 C4.62 0.66 9.24 1.32 14 2 C14 2.33 14 2.66 14 3 C9.38 3 4.76 3 0 3 C0 2.01 0 1.02 0 0 Z " fill="#0C389F" transform="translate(72,118)"/>
<path d="M0 0 C2.5 -0.3125 2.5 -0.3125 5 0 C5.66 0.66 6.32 1.32 7 2 C6.625 4.125 6.625 4.125 6 6 C6 5.01 6 4.02 6 3 C3.36 3 0.72 3 -2 3 C-1.34 2.01 -0.68 1.02 0 0 Z " fill="#2E6CD9" transform="translate(56,71)"/>
<path d="M0 0 C0 0.99 0 1.98 0 3 C-1.96466413 4.06775224 -3.96855359 5.06553465 -6 6 C-8 5 -8 5 -9 3 C-2.25 0 -2.25 0 0 0 Z " fill="#BEE3F7" transform="translate(104,131)"/>
<path d="M0 0 C2.4375 0.75 2.4375 0.75 5 2 C5.8125 4.125 5.8125 4.125 6 6 C2.535 4.02 2.535 4.02 -1 2 C-0.67 1.34 -0.34 0.68 0 0 Z " fill="#D5DCED" transform="translate(58,128)"/>
<path d="M0 0 C1.98 0.495 1.98 0.495 4 1 C4 1.99 4 2.98 4 4 C2.35 4 0.7 4 -1 4 C-0.67 2.68 -0.34 1.36 0 0 Z " fill="#2F9AE2" transform="translate(42,99)"/>
</svg>
